<svg xmlns="http://www.w3.org/2000/svg" xmlns:xlink="http://www.w3.org/1999/xlink" width="500" zoomAndPan="magnify" viewBox="0 0 375 374.999991" height="500" preserveAspectRatio="xMidYMid meet" version="1.2"><defs><clipPath id="1c8cf2d2d9"><path d="M 16 14 L 368.25 14 L 368.25 367 L 16 367 Z M 16 14 "/></clipPath></defs><g id="58e4581f23"><g clip-rule="nonzero" clip-path="url(#1c8cf2d2d9)"><path style=" stroke:none;fill-rule:nonzero;fill:#3b9ec6;fill-opacity:1;" d="M 368.257812 190.347656 C 368.265625 196.398438 367.957031 202.433594 367.339844 208.453125 C 366.722656 214.472656 365.796875 220.441406 364.5625 226.367188 C 363.324219 232.289062 361.785156 238.132812 359.945312 243.894531 C 358.105469 249.660156 355.972656 255.3125 353.546875 260.855469 C 351.121094 266.398438 348.414062 271.800781 345.429688 277.0625 C 342.441406 282.328125 339.195312 287.421875 335.679688 292.347656 C 332.167969 297.273438 328.410156 302.007812 324.40625 306.542969 C 320.40625 311.082031 316.179688 315.398438 311.730469 319.5 C 309.433594 321.621094 307.097656 323.695312 304.671875 325.6875 C 302.644531 327.371094 300.578125 329.007812 298.476562 330.597656 C 296.375 332.1875 294.238281 333.730469 292.066406 335.222656 C 289.894531 336.71875 287.691406 338.160156 285.457031 339.558594 C 283.21875 340.953125 280.953125 342.296875 278.65625 343.589844 C 276.359375 344.882812 274.035156 346.121094 271.679688 347.308594 C 269.328125 348.5 266.949219 349.632812 264.546875 350.714844 C 262.144531 351.796875 259.714844 352.824219 257.265625 353.796875 C 254.816406 354.769531 252.347656 355.683594 249.855469 356.546875 C 247.363281 357.40625 244.855469 358.210938 242.328125 358.960938 C 239.800781 359.710938 237.257812 360.398438 234.699219 361.035156 C 232.140625 361.667969 229.570312 362.246094 226.988281 362.761719 C 224.402344 363.28125 221.808594 363.742188 219.203125 364.144531 C 216.597656 364.546875 213.984375 364.890625 211.367188 365.175781 C 208.746094 365.457031 206.121094 365.683594 203.488281 365.851562 C 200.859375 366.015625 198.226562 366.125 195.589844 366.171875 C 192.957031 366.21875 190.320312 366.207031 187.6875 366.136719 C 185.050781 366.066406 182.417969 365.9375 179.789062 365.75 C 177.160156 365.5625 174.539062 365.3125 171.921875 365.007812 C 169.300781 364.699219 166.691406 364.335938 164.089844 363.910156 C 161.488281 363.488281 158.898438 363.003906 156.320312 362.464844 C 153.738281 361.921875 151.171875 361.324219 148.621094 360.667969 C 146.066406 360.015625 143.53125 359.300781 141.011719 358.53125 C 138.488281 357.761719 135.988281 356.933594 133.503906 356.050781 C 131.019531 355.171875 128.558594 354.234375 126.117188 353.238281 C 123.675781 352.246094 121.257812 351.199219 118.863281 350.097656 C 116.46875 348.996094 114.101562 347.839844 111.757812 346.632812 C 109.414062 345.421875 107.101562 344.164062 104.816406 342.851562 C 102.53125 341.539062 100.273438 340.175781 98.050781 338.761719 C 95.824219 337.347656 93.632812 335.886719 91.476562 334.375 C 89.316406 332.859375 87.191406 331.300781 85.105469 329.691406 C 83.015625 328.085938 80.964844 326.433594 78.949219 324.730469 C 76.9375 323.03125 74.960938 321.289062 73.023438 319.5 C 71.683594 318.289062 70.382812 317.03125 69.128906 315.777344 C 66.558594 313.25 64.066406 310.644531 61.65625 307.964844 C 59.242188 305.28125 56.917969 302.53125 54.675781 299.707031 C 52.433594 296.882812 50.277344 293.992188 48.214844 291.035156 C 46.148438 288.078125 44.179688 285.0625 42.300781 281.984375 C 40.421875 278.90625 38.636719 275.773438 36.953125 272.585938 C 35.265625 269.398438 33.679688 266.164062 32.191406 262.878906 C 30.703125 259.59375 29.320312 256.265625 28.039062 252.894531 C 26.753906 249.527344 25.578125 246.121094 24.503906 242.675781 C 23.433594 239.234375 22.464844 235.761719 21.605469 232.261719 C 20.746094 228.757812 19.996094 225.234375 19.355469 221.683594 C 18.710938 218.136719 18.179688 214.570312 17.753906 210.992188 C 17.332031 207.410156 17.019531 203.820312 16.816406 200.21875 C 16.617188 196.617188 16.523438 193.015625 16.542969 189.410156 C 16.5625 185.804688 16.691406 182.203125 16.933594 178.605469 C 17.175781 175.007812 17.527344 171.421875 17.988281 167.84375 C 18.449219 164.269531 19.019531 160.707031 19.699219 157.167969 C 20.382812 153.625 21.167969 150.109375 22.066406 146.617188 C 22.964844 143.125 23.964844 139.664062 25.078125 136.230469 C 26.1875 132.800781 27.398438 129.40625 28.71875 126.050781 C 30.035156 122.695312 31.457031 119.382812 32.980469 116.113281 C 34.5 112.84375 36.125 109.625 37.84375 106.457031 C 39.5625 103.289062 41.378906 100.175781 43.292969 97.117188 C 45.203125 94.058594 47.207031 91.066406 49.304688 88.128906 C 51.398438 85.195312 53.582031 82.328125 55.855469 79.53125 C 58.128906 76.730469 60.484375 74.003906 62.925781 71.347656 C 65.363281 68.691406 67.882812 66.117188 70.484375 63.617188 C 73.082031 61.117188 75.753906 58.699219 78.503906 56.363281 C 81.25 54.027344 84.066406 51.777344 86.953125 49.617188 C 89.835938 47.453125 92.785156 45.382812 95.800781 43.402344 C 98.8125 41.421875 101.882812 39.535156 105.015625 37.742188 C 108.144531 35.953125 111.324219 34.257812 114.558594 32.664062 C 117.792969 31.066406 121.070312 29.570312 124.394531 28.175781 C 127.722656 26.78125 131.085938 25.492188 134.492188 24.304688 C 137.894531 23.117188 141.332031 22.035156 144.804688 21.058594 C 148.277344 20.082031 151.773438 19.214844 155.300781 18.453125 C 158.824219 17.695312 162.367188 17.042969 165.933594 16.5 C 169.5 15.957031 173.078125 15.523438 176.667969 15.203125 C 180.257812 14.878906 183.855469 14.667969 187.460938 14.566406 C 191.066406 14.464844 194.671875 14.472656 198.273438 14.59375 C 201.878906 14.714844 205.476562 14.945312 209.0625 15.289062 C 212.652344 15.628906 216.230469 16.082031 219.792969 16.644531 C 223.351562 17.203125 226.894531 17.875 230.414062 18.65625 C 233.9375 19.433594 237.429688 20.320312 240.894531 21.316406 C 244.363281 22.308594 247.792969 23.410156 251.191406 24.617188 C 254.589844 25.820312 257.949219 27.128906 261.265625 28.542969 C 264.585938 29.953125 267.855469 31.464844 271.082031 33.078125 C 274.304688 34.691406 277.476562 36.402344 280.597656 38.210938 C 283.714844 40.019531 286.777344 41.921875 289.78125 43.921875 C 292.78125 45.917969 295.722656 48.003906 298.59375 50.183594 C 301.46875 52.359375 304.273438 54.621094 307.007812 56.972656 C 309.742188 59.324219 312.402344 61.753906 314.988281 64.269531 C 317.574219 66.78125 320.082031 69.371094 322.507812 72.039062 C 324.933594 74.707031 327.273438 77.449219 329.53125 80.261719 C 331.789062 83.070312 333.957031 85.949219 336.039062 88.894531 C 338.117188 91.839844 340.105469 94.847656 342 97.914062 C 343.898438 100.980469 345.695312 104.105469 347.398438 107.285156 C 349.101562 110.460938 350.707031 113.6875 352.210938 116.964844 C 353.714844 120.242188 355.121094 123.5625 356.421875 126.925781 C 357.71875 130.289062 358.917969 133.6875 360.007812 137.125 C 361.097656 140.5625 362.085938 144.03125 362.960938 147.527344 C 363.839844 151.023438 364.609375 154.546875 365.273438 158.089844 C 365.933594 161.632812 366.484375 165.195312 366.929688 168.773438 C 367.371094 172.355469 367.703125 175.941406 367.925781 179.542969 C 368.144531 183.140625 368.257812 186.742188 368.257812 190.347656 Z M 368.257812 190.347656 "/></g><path style=" stroke:none;fill-rule:nonzero;fill:#000000;fill-opacity:1;" d="M 245.675781 130.851562 C 244.128906 98.96875 165.625 73.769531 129.800781 123.136719 C 93.976562 172.503906 109.914062 199.761719 91.402344 232.160156 C 72.890625 264.558594 128.550781 346.320312 226.460938 316.496094 C 324.371094 286.671875 295.566406 264.042969 283.222656 216.730469 C 270.878906 169.421875 276.53125 121.59375 245.675781 130.851562 Z M 245.675781 130.851562 "/><path style=" stroke:none;fill-rule:nonzero;fill:#ff2626;fill-opacity:1;" d="M 304.671875 325.6875 C 302.644531 327.371094 300.578125 329.007812 298.476562 330.597656 C 296.375 332.1875 294.238281 333.730469 292.066406 335.222656 C 289.894531 336.71875 287.691406 338.160156 285.457031 339.558594 C 283.21875 340.953125 280.953125 342.296875 278.65625 343.589844 C 276.359375 344.882812 274.035156 346.121094 271.679688 347.308594 C 269.328125 348.5 266.949219 349.632812 264.546875 350.714844 C 262.144531 351.796875 259.714844 352.824219 257.265625 353.796875 C 254.816406 354.769531 252.347656 355.683594 249.855469 356.546875 C 247.363281 357.40625 244.855469 358.210938 242.328125 358.960938 C 239.800781 359.710938 237.257812 360.398438 234.699219 361.035156 C 232.140625 361.667969 229.570312 362.246094 226.988281 362.761719 C 224.402344 363.28125 221.808594 363.742188 219.203125 364.144531 C 216.597656 364.546875 213.984375 364.890625 211.367188 365.175781 C 208.746094 365.457031 206.121094 365.683594 203.488281 365.851562 C 200.859375 366.015625 198.226562 366.125 195.589844 366.171875 C 192.957031 366.21875 190.320312 366.207031 187.6875 366.136719 C 185.050781 366.066406 182.417969 365.9375 179.789062 365.75 C 177.160156 365.5625 174.539062 365.3125 171.921875 365.007812 C 169.300781 364.699219 166.691406 364.335938 164.089844 363.910156 C 161.488281 363.488281 158.898438 363.003906 156.320312 362.464844 C 153.738281 361.921875 151.171875 361.324219 148.621094 360.667969 C 146.066406 360.015625 143.53125 359.300781 141.011719 358.53125 C 138.488281 357.761719 135.988281 356.933594 133.503906 356.050781 C 131.019531 355.171875 128.558594 354.234375 126.117188 353.238281 C 123.675781 352.246094 121.257812 351.199219 118.863281 350.097656 C 116.46875 348.996094 114.101562 347.839844 111.757812 346.632812 C 109.414062 345.421875 107.101562 344.164062 104.816406 342.851562 C 102.53125 341.539062 100.273438 340.175781 98.050781 338.761719 C 95.824219 337.347656 93.632812 335.886719 91.476562 334.375 C 89.316406 332.859375 87.191406 331.300781 85.105469 329.691406 C 83.015625 328.085938 80.964844 326.433594 78.949219 324.730469 C 76.9375 323.03125 74.960938 321.289062 73.023438 319.5 C 71.683594 318.289062 70.382812 317.03125 69.128906 315.777344 C 73.632812 307.769531 83.324219 294.523438 102.585938 284.261719 C 116.132812 276.992188 134.441406 271.234375 158.941406 269.847656 C 162.273438 269.675781 165.734375 269.546875 169.328125 269.546875 C 185.648438 269.460938 199.800781 269.546875 212.097656 269.9375 C 252.308594 271.277344 272.695312 276.039062 285.460938 289.671875 C 289.78125 294.351562 293.230469 299.605469 295.804688 305.429688 C 299.304688 312.96875 302.511719 319.675781 304.671875 325.6875 Z M 304.671875 325.6875 "/><path style=" stroke:none;fill-rule:nonzero;fill:#ff908b;fill-opacity:1;" d="M 158.511719 225.214844 C 159.621094 242.828125 159.621094 260.441406 158.511719 278.054688 C 158.511719 278.054688 166.609375 290.785156 186.664062 296.183594 C 206.722656 301.582031 212.121094 282.683594 212.121094 282.683594 C 212.121094 282.683594 211.347656 256.457031 214.4375 235.628906 Z M 158.511719 225.214844 "/><path style=" stroke:none;fill-rule:nonzero;fill:#ffb5ac;fill-opacity:1;" d="M 151.679688 193.460938 L 154.460938 202.074219 L 159.28125 169.777344 C 159.28125 169.777344 206.964844 189.480469 244.90625 146.28125 C 244.90625 146.28125 253.648438 197.964844 245.675781 230.105469 C 237.707031 262.246094 225.6875 264.039062 208.648438 264.945312 C 191.613281 265.855469 158.003906 244.125 153.882812 215.578125 C 135.882812 220.203125 124.824219 209.144531 132.027344 192.691406 L 132.242188 192.203125 C 136.160156 183.554688 148.761719 184.425781 151.679688 193.460938 Z M 151.679688 193.460938 "/></g></svg>