<svg xmlns="http://www.w3.org/2000/svg" xmlns:xlink="http://www.w3.org/1999/xlink" width="500" zoomAndPan="magnify" viewBox="0 0 375 374.999991" height="500" preserveAspectRatio="xMidYMid meet" version="1.2"><defs><clipPath id="1c6a7d72aa"><path d="M 22 27 L 368.578125 27 L 368.578125 374 L 22 374 Z M 22 27 "/></clipPath></defs><g id="96792ed9e1"><g clip-rule="nonzero" clip-path="url(#1c6a7d72aa)"><path style=" stroke:none;fill-rule:nonzero;fill:#7054ff;fill-opacity:1;" d="M 368.675781 200.53125 C 368.675781 204.816406 368.515625 209.089844 368.199219 213.363281 C 367.882812 217.632812 367.410156 221.886719 366.777344 226.125 C 366.144531 230.359375 365.359375 234.566406 364.414062 238.746094 C 363.472656 242.921875 362.375 247.058594 361.125 251.15625 C 359.871094 255.253906 358.472656 259.296875 356.921875 263.289062 C 355.371094 267.285156 353.675781 271.214844 351.832031 275.078125 C 349.992188 278.945312 348.011719 282.742188 345.886719 286.460938 C 343.765625 290.179688 341.507812 293.816406 339.113281 297.367188 C 336.722656 300.921875 334.199219 304.378906 331.550781 307.746094 C 328.902344 311.113281 326.132812 314.375 323.242188 317.535156 C 320.351562 320.695312 317.347656 323.746094 314.230469 326.683594 C 311.113281 329.621094 307.890625 332.4375 304.566406 335.136719 C 301.238281 337.835938 297.820312 340.40625 294.300781 342.851562 C 290.785156 345.296875 287.183594 347.609375 283.496094 349.785156 C 279.808594 351.964844 276.042969 354.003906 272.203125 355.902344 C 268.367188 357.800781 264.460938 359.554688 260.492188 361.164062 C 256.523438 362.773438 252.5 364.234375 248.421875 365.546875 C 244.34375 366.859375 240.222656 368.015625 236.0625 369.023438 C 231.898438 370.027344 227.703125 370.878906 223.476562 371.574219 C 219.25 372.269531 215.003906 372.804688 210.738281 373.183594 C 206.472656 373.566406 202.199219 373.785156 197.914062 373.851562 C 193.632812 373.914062 189.351562 373.816406 185.078125 373.5625 C 180.800781 373.308594 176.542969 372.898438 172.296875 372.328125 C 168.050781 371.757812 163.832031 371.03125 159.640625 370.148438 C 155.453125 369.265625 151.296875 368.226562 147.183594 367.039062 C 143.070312 365.847656 139.003906 364.503906 134.992188 363.011719 C 130.976562 361.523438 127.023438 359.882812 123.128906 358.097656 C 119.234375 356.3125 115.414062 354.386719 111.664062 352.316406 C 107.914062 350.25 104.242188 348.042969 100.65625 345.703125 C 97.070312 343.363281 93.574219 340.894531 90.171875 338.292969 C 86.765625 335.695312 83.464844 332.972656 80.261719 330.128906 C 77.058594 327.28125 73.964844 324.324219 70.984375 321.25 C 68.523438 318.714844 66.140625 316.109375 63.839844 313.425781 C 61.539062 310.746094 59.320312 308 57.1875 305.183594 C 55.054688 302.367188 53.011719 299.488281 51.050781 296.546875 C 49.09375 293.605469 47.230469 290.605469 45.457031 287.550781 C 43.683594 284.496094 42.003906 281.390625 40.417969 278.234375 C 38.835938 275.074219 37.347656 271.871094 35.960938 268.621094 C 34.574219 265.375 33.285156 262.085938 32.097656 258.757812 C 30.910156 255.429688 29.828125 252.070312 28.84375 248.675781 C 27.863281 245.28125 26.988281 241.863281 26.214844 238.414062 C 25.441406 234.96875 24.773438 231.5 24.214844 228.011719 C 23.65625 224.523438 23.203125 221.023438 22.855469 217.503906 C 22.507812 213.988281 22.269531 210.46875 22.140625 206.9375 C 22.007812 203.40625 21.984375 199.875 22.070312 196.34375 C 22.15625 192.8125 22.347656 189.285156 22.648438 185.765625 C 22.949219 182.246094 23.359375 178.738281 23.875 175.242188 C 24.390625 171.746094 25.011719 168.269531 25.738281 164.8125 C 26.464844 161.355469 27.296875 157.925781 28.234375 154.519531 C 29.171875 151.113281 30.214844 147.738281 31.359375 144.394531 C 32.503906 141.054688 33.746094 137.75 35.09375 134.484375 C 36.4375 131.214844 37.882812 127.996094 39.425781 124.816406 C 40.96875 121.636719 42.609375 118.511719 44.34375 115.433594 C 46.078125 112.355469 47.902344 109.332031 49.824219 106.367188 C 51.742188 103.398438 53.75 100.496094 55.847656 97.652344 C 57.941406 94.808594 60.125 92.03125 62.390625 89.320312 C 64.65625 86.613281 67.003906 83.972656 69.433594 81.40625 C 71.859375 78.839844 74.363281 76.351562 76.945312 73.9375 C 79.523438 71.523438 82.175781 69.191406 84.898438 66.941406 C 87.621094 64.6875 90.410156 62.523438 93.265625 60.441406 C 96.121094 58.363281 99.035156 56.371094 102.011719 54.46875 C 104.992188 52.566406 108.023438 50.757812 111.109375 49.039062 C 114.199219 47.320312 117.335938 45.699219 120.519531 44.175781 C 123.707031 42.652344 126.9375 41.222656 130.210938 39.898438 C 133.484375 38.570312 136.796875 37.34375 140.148438 36.21875 C 143.496094 35.09375 146.875 34.070312 150.285156 33.152344 C 153.699219 32.234375 157.132812 31.421875 160.597656 30.710938 C 164.058594 30.003906 167.535156 29.402344 171.035156 28.90625 C 174.53125 28.410156 178.042969 28.023438 181.5625 27.742188 C 185.085938 27.460938 188.613281 27.289062 192.144531 27.222656 C 195.675781 27.15625 199.207031 27.199219 202.738281 27.351562 C 206.265625 27.5 209.789062 27.757812 213.300781 28.125 C 216.816406 28.492188 220.316406 28.964844 223.800781 29.542969 C 227.285156 30.125 230.75 30.808594 234.191406 31.601562 C 237.636719 32.394531 241.050781 33.289062 244.4375 34.289062 C 247.828125 35.289062 251.183594 36.394531 254.503906 37.597656 C 257.824219 38.804688 261.105469 40.109375 264.34375 41.519531 C 267.585938 42.925781 270.78125 44.429688 273.929688 46.03125 C 277.078125 47.632812 280.175781 49.328125 283.222656 51.117188 C 286.265625 52.910156 289.253906 54.792969 292.183594 56.765625 C 295.113281 58.738281 297.980469 60.800781 300.785156 62.949219 C 303.589844 65.097656 306.324219 67.332031 308.992188 69.648438 C 311.660156 71.964844 314.253906 74.359375 316.773438 76.835938 C 319.296875 79.3125 321.738281 81.859375 324.105469 84.484375 C 326.46875 87.109375 328.75 89.804688 330.953125 92.566406 C 333.152344 95.332031 335.265625 98.160156 337.292969 101.054688 C 339.320312 103.945312 341.257812 106.898438 343.105469 109.910156 C 344.953125 112.921875 346.703125 115.988281 348.363281 119.105469 C 350.023438 122.226562 351.585938 125.390625 353.050781 128.605469 C 354.519531 131.820312 355.882812 135.078125 357.152344 138.375 C 358.417969 141.671875 359.582031 145.007812 360.644531 148.375 C 361.707031 151.746094 362.667969 155.144531 363.523438 158.570312 C 364.375 162 365.125 165.449219 365.769531 168.921875 C 366.414062 172.398438 366.953125 175.886719 367.382812 179.394531 C 367.8125 182.898438 368.136719 186.417969 368.351562 189.941406 C 368.566406 193.46875 368.675781 197 368.675781 200.53125 Z M 368.675781 200.53125 "/></g><path style=" stroke:none;fill-rule:nonzero;fill:#002c5c;fill-opacity:1;" d="M 319.824219 321.25 C 317.808594 323.324219 315.742188 325.347656 313.628906 327.320312 C 311.511719 329.289062 309.351562 331.207031 307.140625 333.070312 C 304.925781 334.933594 302.671875 336.742188 300.371094 338.492188 C 298.066406 340.242188 295.722656 341.933594 293.339844 343.566406 C 290.953125 345.199219 288.527344 346.773438 286.0625 348.285156 C 283.597656 349.796875 281.09375 351.246094 278.558594 352.628906 C 276.019531 354.015625 273.449219 355.339844 270.847656 356.597656 C 268.242188 357.855469 265.609375 359.046875 262.945312 360.175781 C 260.285156 361.300781 257.59375 362.359375 254.878906 363.351562 C 252.164062 364.34375 249.421875 365.265625 246.660156 366.121094 C 243.898438 366.976562 241.117188 367.761719 238.316406 368.476562 C 235.511719 369.191406 232.695312 369.835938 229.863281 370.410156 C 227.027344 370.984375 224.183594 371.488281 221.324219 371.921875 C 218.464844 372.355469 215.59375 372.714844 212.71875 373.003906 C 209.839844 373.292969 206.960938 373.507812 204.070312 373.652344 C 201.183594 373.796875 198.292969 373.871094 195.402344 373.871094 C 192.511719 373.871094 189.621094 373.796875 186.734375 373.652344 C 183.84375 373.507812 180.960938 373.292969 178.085938 373.003906 C 175.207031 372.714844 172.339844 372.355469 169.480469 371.921875 C 166.621094 371.488281 163.777344 370.984375 160.941406 370.410156 C 158.109375 369.835938 155.289062 369.191406 152.488281 368.476562 C 149.6875 367.761719 146.90625 366.976562 144.144531 366.121094 C 141.382812 365.265625 138.640625 364.34375 135.925781 363.351562 C 133.210938 362.359375 130.519531 361.300781 127.855469 360.175781 C 125.195312 359.046875 122.5625 357.855469 119.957031 356.597656 C 117.355469 355.339844 114.785156 354.015625 112.246094 352.628906 C 109.707031 351.246094 107.207031 349.796875 104.742188 348.285156 C 102.277344 346.773438 99.851562 345.199219 97.464844 343.566406 C 95.082031 341.933594 92.734375 340.242188 90.433594 338.492188 C 88.132812 336.742188 85.875 334.933594 83.664062 333.070312 C 81.453125 331.207031 79.292969 329.289062 77.175781 327.320312 C 75.0625 325.347656 72.996094 323.324219 70.980469 321.25 C 72.265625 318.214844 73.65625 315.226562 75.160156 312.292969 C 76.660156 309.359375 78.269531 306.480469 79.980469 303.664062 C 81.691406 300.847656 83.507812 298.097656 85.417969 295.414062 C 87.332031 292.730469 89.34375 290.117188 91.449219 287.582031 C 93.554688 285.042969 95.746094 282.585938 98.03125 280.210938 C 100.316406 277.835938 102.6875 275.542969 105.136719 273.339844 C 107.589844 271.136719 110.121094 269.027344 112.726562 267.011719 C 115.335938 264.992188 118.011719 263.074219 120.757812 261.25 C 123.507812 259.429688 126.316406 257.710938 129.191406 256.09375 C 132.0625 254.476562 134.992188 252.96875 137.976562 251.566406 C 140.960938 250.167969 143.992188 248.875 147.070312 247.695312 C 150.148438 246.515625 153.265625 245.449219 156.421875 244.5 C 159.578125 243.546875 162.765625 242.714844 165.984375 241.996094 C 169.199219 241.277344 172.441406 240.679688 175.703125 240.199219 C 178.964844 239.714844 182.238281 239.355469 185.527344 239.113281 C 188.8125 238.875 192.105469 238.753906 195.402344 238.753906 C 198.699219 238.753906 201.992188 238.875 205.277344 239.113281 C 208.566406 239.355469 211.839844 239.714844 215.101562 240.199219 C 218.363281 240.679688 221.605469 241.277344 224.820312 241.996094 C 228.039062 242.714844 231.226562 243.546875 234.382812 244.5 C 237.539062 245.449219 240.65625 246.515625 243.734375 247.695312 C 246.8125 248.875 249.84375 250.167969 252.828125 251.566406 C 255.8125 252.96875 258.738281 254.476562 261.613281 256.09375 C 264.488281 257.710938 267.296875 259.429688 270.046875 261.25 C 272.792969 263.074219 275.46875 264.992188 278.078125 267.011719 C 280.683594 269.027344 283.214844 271.136719 285.667969 273.339844 C 288.117188 275.542969 290.488281 277.835938 292.773438 280.210938 C 295.058594 282.585938 297.25 285.042969 299.355469 287.582031 C 301.460938 290.117188 303.472656 292.730469 305.382812 295.414062 C 307.296875 298.097656 309.113281 300.847656 310.824219 303.664062 C 312.535156 306.480469 314.144531 309.359375 315.644531 312.292969 C 317.148438 315.226562 318.539062 318.214844 319.824219 321.25 Z M 319.824219 321.25 "/><path style=" stroke:none;fill-rule:nonzero;fill:#ff9561;fill-opacity:1;" d="M 195.335938 200.503906 C 196.132812 200.503906 196.929688 200.542969 197.726562 200.621094 C 198.519531 200.699219 199.3125 200.816406 200.09375 200.972656 C 200.878906 201.128906 201.652344 201.324219 202.417969 201.554688 C 203.183594 201.789062 203.933594 202.058594 204.671875 202.363281 C 205.410156 202.667969 206.132812 203.007812 206.835938 203.386719 C 207.542969 203.761719 208.226562 204.171875 208.890625 204.617188 C 209.554688 205.0625 210.195312 205.535156 210.816406 206.042969 C 211.433594 206.550781 212.023438 207.085938 212.589844 207.652344 C 213.15625 208.21875 213.691406 208.808594 214.199219 209.425781 C 214.703125 210.042969 215.179688 210.6875 215.625 211.351562 C 216.066406 212.015625 216.476562 212.699219 216.855469 213.402344 C 217.230469 214.109375 217.574219 214.832031 217.878906 215.570312 C 218.183594 216.308594 218.453125 217.058594 218.6875 217.824219 C 218.917969 218.589844 219.113281 219.363281 219.269531 220.148438 C 219.421875 220.929688 219.539062 221.71875 219.617188 222.515625 C 219.699219 223.3125 219.738281 224.109375 219.738281 224.90625 L 219.738281 246.429688 C 219.738281 247.230469 219.699219 248.027344 219.617188 248.824219 C 219.539062 249.617188 219.421875 250.40625 219.269531 251.191406 C 219.113281 251.976562 218.917969 252.75 218.6875 253.515625 C 218.453125 254.28125 218.183594 255.03125 217.878906 255.769531 C 217.574219 256.507812 217.230469 257.230469 216.855469 257.933594 C 216.476562 258.640625 216.066406 259.324219 215.625 259.988281 C 215.179688 260.652344 214.703125 261.292969 214.199219 261.910156 C 213.691406 262.53125 213.15625 263.121094 212.589844 263.6875 C 212.023438 264.25 211.433594 264.789062 210.816406 265.292969 C 210.195312 265.800781 209.554688 266.277344 208.890625 266.71875 C 208.226562 267.164062 207.542969 267.574219 206.835938 267.953125 C 206.132812 268.328125 205.410156 268.667969 204.671875 268.976562 C 203.933594 269.28125 203.183594 269.550781 202.417969 269.78125 C 201.652344 270.015625 200.878906 270.207031 200.09375 270.363281 C 199.3125 270.519531 198.519531 270.636719 197.726562 270.714844 C 196.929688 270.792969 196.132812 270.832031 195.335938 270.832031 C 194.535156 270.832031 193.738281 270.792969 192.941406 270.714844 C 192.148438 270.636719 191.359375 270.519531 190.574219 270.363281 C 189.789062 270.207031 189.015625 270.015625 188.25 269.78125 C 187.484375 269.550781 186.734375 269.28125 185.996094 268.976562 C 185.257812 268.667969 184.535156 268.328125 183.832031 267.953125 C 183.125 267.574219 182.441406 267.164062 181.777344 266.722656 C 181.113281 266.277344 180.472656 265.800781 179.855469 265.292969 C 179.234375 264.789062 178.644531 264.25 178.078125 263.6875 C 177.515625 263.121094 176.976562 262.53125 176.472656 261.910156 C 175.964844 261.292969 175.488281 260.652344 175.042969 259.988281 C 174.601562 259.324219 174.191406 258.640625 173.8125 257.933594 C 173.4375 257.230469 173.09375 256.507812 172.789062 255.769531 C 172.484375 255.03125 172.214844 254.28125 171.984375 253.515625 C 171.75 252.75 171.558594 251.976562 171.402344 251.191406 C 171.246094 250.40625 171.128906 249.617188 171.050781 248.824219 C 170.972656 248.027344 170.933594 247.230469 170.933594 246.429688 L 170.933594 224.90625 C 170.933594 224.109375 170.972656 223.3125 171.050781 222.515625 C 171.128906 221.71875 171.246094 220.929688 171.402344 220.148438 C 171.558594 219.363281 171.75 218.589844 171.984375 217.824219 C 172.214844 217.058594 172.484375 216.308594 172.789062 215.570312 C 173.09375 214.832031 173.4375 214.109375 173.8125 213.402344 C 174.191406 212.699219 174.601562 212.015625 175.042969 211.351562 C 175.488281 210.6875 175.964844 210.042969 176.472656 209.425781 C 176.976562 208.808594 177.515625 208.21875 178.078125 207.652344 C 178.644531 207.085938 179.234375 206.550781 179.855469 206.042969 C 180.472656 205.535156 181.113281 205.0625 181.777344 204.617188 C 182.441406 204.171875 183.125 203.761719 183.832031 203.386719 C 184.535156 203.007812 185.257812 202.667969 185.996094 202.363281 C 186.734375 202.058594 187.484375 201.789062 188.25 201.554688 C 189.015625 201.324219 189.789062 201.128906 190.574219 200.972656 C 191.359375 200.816406 192.148438 200.699219 192.941406 200.621094 C 193.738281 200.542969 194.535156 200.503906 195.335938 200.503906 Z M 195.335938 200.503906 "/><path style=" stroke:none;fill-rule:nonzero;fill:#af4c0f;fill-opacity:1;" d="M 142.789062 200.503906 C 98.183594 178.816406 101.507812 113.292969 132.21875 104.253906 C 135.882812 76.398438 215.054688 60.515625 254.148438 84.953125 C 293.246094 109.386719 281.519531 175.359375 250.726562 181.957031 "/><path style=" stroke:none;fill-rule:nonzero;fill:#ff9561;fill-opacity:1;" d="M 150.855469 185.140625 C 150.855469 186.152344 150.757812 187.152344 150.5625 188.144531 C 150.363281 189.132812 150.070312 190.097656 149.683594 191.03125 C 149.296875 191.964844 148.824219 192.851562 148.261719 193.691406 C 147.703125 194.53125 147.0625 195.308594 146.347656 196.023438 C 145.632812 196.738281 144.855469 197.375 144.015625 197.9375 C 143.175781 198.496094 142.289062 198.972656 141.355469 199.359375 C 140.421875 199.746094 139.460938 200.035156 138.46875 200.234375 C 137.480469 200.429688 136.476562 200.53125 135.46875 200.53125 C 134.457031 200.53125 133.457031 200.429688 132.464844 200.234375 C 131.472656 200.035156 130.511719 199.746094 129.578125 199.359375 C 128.644531 198.972656 127.757812 198.496094 126.917969 197.9375 C 126.078125 197.375 125.300781 196.738281 124.585938 196.023438 C 123.871094 195.308594 123.234375 194.53125 122.671875 193.691406 C 122.109375 192.851562 121.636719 191.964844 121.25 191.03125 C 120.863281 190.097656 120.570312 189.132812 120.375 188.144531 C 120.175781 187.152344 120.078125 186.152344 120.078125 185.140625 C 120.078125 184.128906 120.175781 183.128906 120.375 182.140625 C 120.570312 181.148438 120.863281 180.1875 121.25 179.253906 C 121.636719 178.320312 122.109375 177.433594 122.671875 176.589844 C 123.234375 175.75 123.871094 174.972656 124.585938 174.257812 C 125.300781 173.546875 126.078125 172.90625 126.917969 172.347656 C 127.757812 171.785156 128.644531 171.308594 129.578125 170.925781 C 130.511719 170.539062 131.472656 170.246094 132.464844 170.046875 C 133.457031 169.851562 134.457031 169.753906 135.46875 169.753906 C 136.476562 169.753906 137.480469 169.851562 138.46875 170.046875 C 139.460938 170.246094 140.421875 170.539062 141.355469 170.925781 C 142.289062 171.308594 143.175781 171.785156 144.015625 172.347656 C 144.855469 172.90625 145.632812 173.546875 146.347656 174.257812 C 147.0625 174.972656 147.703125 175.75 148.261719 176.589844 C 148.824219 177.433594 149.296875 178.320312 149.683594 179.253906 C 150.070312 180.1875 150.363281 181.148438 150.5625 182.140625 C 150.757812 183.128906 150.855469 184.128906 150.855469 185.140625 Z M 150.855469 185.140625 "/><path style=" stroke:none;fill-rule:nonzero;fill:#ff9561;fill-opacity:1;" d="M 269.15625 185.140625 C 269.15625 186.152344 269.058594 187.152344 268.859375 188.144531 C 268.664062 189.132812 268.371094 190.097656 267.984375 191.03125 C 267.597656 191.964844 267.125 192.851562 266.5625 193.691406 C 266 194.53125 265.363281 195.308594 264.648438 196.023438 C 263.933594 196.738281 263.15625 197.375 262.316406 197.9375 C 261.476562 198.496094 260.589844 198.972656 259.65625 199.359375 C 258.722656 199.746094 257.761719 200.035156 256.769531 200.234375 C 255.777344 200.429688 254.777344 200.53125 253.769531 200.53125 C 252.757812 200.53125 251.757812 200.429688 250.765625 200.234375 C 249.773438 200.035156 248.8125 199.746094 247.878906 199.359375 C 246.945312 198.972656 246.058594 198.496094 245.21875 197.9375 C 244.378906 197.375 243.601562 196.738281 242.886719 196.023438 C 242.171875 195.308594 241.535156 194.53125 240.972656 193.691406 C 240.410156 192.851562 239.9375 191.964844 239.550781 191.03125 C 239.164062 190.097656 238.871094 189.132812 238.675781 188.144531 C 238.476562 187.152344 238.378906 186.152344 238.378906 185.140625 C 238.378906 184.128906 238.476562 183.128906 238.675781 182.140625 C 238.871094 181.148438 239.164062 180.1875 239.550781 179.253906 C 239.9375 178.320312 240.410156 177.433594 240.972656 176.589844 C 241.535156 175.75 242.171875 174.972656 242.886719 174.257812 C 243.601562 173.546875 244.378906 172.90625 245.21875 172.347656 C 246.058594 171.785156 246.945312 171.308594 247.878906 170.925781 C 248.8125 170.539062 249.773438 170.246094 250.765625 170.046875 C 251.757812 169.851562 252.757812 169.753906 253.769531 169.753906 C 254.777344 169.753906 255.777344 169.851562 256.769531 170.046875 C 257.761719 170.246094 258.722656 170.539062 259.65625 170.925781 C 260.589844 171.308594 261.476562 171.785156 262.316406 172.347656 C 263.15625 172.90625 263.933594 173.546875 264.648438 174.257812 C 265.363281 174.972656 266 175.75 266.5625 176.589844 C 267.125 177.433594 267.597656 178.320312 267.984375 179.253906 C 268.371094 180.1875 268.664062 181.148438 268.859375 182.140625 C 269.058594 183.128906 269.15625 184.128906 269.15625 185.140625 Z M 269.15625 185.140625 "/><path style=" stroke:none;fill-rule:nonzero;fill:#ffc9ac;fill-opacity:1;" d="M 195.402344 103.390625 C 197.363281 103.390625 199.324219 103.488281 201.277344 103.679688 C 203.230469 103.871094 205.167969 104.160156 207.09375 104.542969 C 209.019531 104.925781 210.921875 105.402344 212.800781 105.972656 C 214.675781 106.539062 216.523438 107.203125 218.335938 107.953125 C 220.148438 108.703125 221.921875 109.542969 223.652344 110.46875 C 225.386719 111.394531 227.066406 112.402344 228.699219 113.492188 C 230.332031 114.582031 231.90625 115.75 233.421875 116.996094 C 234.941406 118.238281 236.394531 119.558594 237.78125 120.945312 C 239.167969 122.332031 240.484375 123.785156 241.730469 125.304688 C 242.976562 126.820312 244.144531 128.394531 245.234375 130.027344 C 246.324219 131.660156 247.332031 133.339844 248.257812 135.070312 C 249.183594 136.804688 250.023438 138.574219 250.773438 140.390625 C 251.523438 142.203125 252.183594 144.046875 252.753906 145.925781 C 253.324219 147.804688 253.800781 149.707031 254.183594 151.632812 C 254.566406 153.558594 254.855469 155.496094 255.046875 157.449219 C 255.238281 159.402344 255.335938 161.363281 255.335938 163.324219 L 255.335938 178.816406 C 255.335938 180.78125 255.238281 182.738281 255.046875 184.691406 C 254.855469 186.644531 254.566406 188.585938 254.183594 190.511719 C 253.800781 192.433594 253.324219 194.335938 252.753906 196.214844 C 252.183594 198.09375 251.523438 199.941406 250.773438 201.753906 C 250.023438 203.566406 249.183594 205.339844 248.257812 207.070312 C 247.332031 208.800781 246.324219 210.484375 245.234375 212.113281 C 244.144531 213.746094 242.976562 215.320312 241.730469 216.839844 C 240.484375 218.355469 239.167969 219.808594 237.78125 221.199219 C 236.394531 222.585938 234.941406 223.902344 233.421875 225.148438 C 231.90625 226.390625 230.332031 227.558594 228.699219 228.652344 C 227.066406 229.742188 225.386719 230.75 223.652344 231.675781 C 221.921875 232.601562 220.148438 233.4375 218.335938 234.191406 C 216.523438 234.941406 214.675781 235.601562 212.800781 236.171875 C 210.921875 236.742188 209.019531 237.21875 207.09375 237.601562 C 205.167969 237.984375 203.230469 238.269531 201.277344 238.464844 C 199.324219 238.65625 197.363281 238.75 195.402344 238.75 C 193.4375 238.75 191.480469 238.65625 189.527344 238.464844 C 187.574219 238.269531 185.632812 237.984375 183.707031 237.601562 C 181.785156 237.21875 179.882812 236.742188 178.003906 236.171875 C 176.125 235.601562 174.277344 234.941406 172.464844 234.191406 C 170.652344 233.4375 168.878906 232.601562 167.148438 231.675781 C 165.417969 230.75 163.734375 229.742188 162.105469 228.652344 C 160.472656 227.558594 158.898438 226.390625 157.378906 225.148438 C 155.863281 223.902344 154.410156 222.585938 153.023438 221.199219 C 151.632812 219.808594 150.316406 218.355469 149.070312 216.839844 C 147.828125 215.320312 146.660156 213.746094 145.566406 212.113281 C 144.476562 210.484375 143.46875 208.800781 142.542969 207.070312 C 141.621094 205.339844 140.78125 203.566406 140.03125 201.753906 C 139.277344 199.941406 138.617188 198.09375 138.046875 196.214844 C 137.480469 194.335938 137.003906 192.433594 136.621094 190.511719 C 136.238281 188.585938 135.949219 186.644531 135.757812 184.691406 C 135.5625 182.738281 135.46875 180.78125 135.46875 178.816406 L 135.46875 163.324219 C 135.46875 161.363281 135.5625 159.402344 135.757812 157.449219 C 135.949219 155.496094 136.238281 153.558594 136.621094 151.632812 C 137.003906 149.707031 137.480469 147.804688 138.046875 145.925781 C 138.617188 144.046875 139.277344 142.203125 140.03125 140.390625 C 140.78125 138.574219 141.621094 136.804688 142.542969 135.070312 C 143.46875 133.339844 144.476562 131.660156 145.566406 130.027344 C 146.660156 128.394531 147.828125 126.820312 149.070312 125.304688 C 150.316406 123.785156 151.632812 122.332031 153.023438 120.945312 C 154.410156 119.558594 155.863281 118.238281 157.378906 116.996094 C 158.898438 115.75 160.472656 114.582031 162.105469 113.492188 C 163.734375 112.402344 165.417969 111.394531 167.148438 110.46875 C 168.878906 109.542969 170.652344 108.703125 172.464844 107.953125 C 174.277344 107.203125 176.125 106.539062 178.003906 105.972656 C 179.882812 105.402344 181.785156 104.925781 183.707031 104.542969 C 185.632812 104.160156 187.574219 103.871094 189.527344 103.679688 C 191.480469 103.488281 193.4375 103.390625 195.402344 103.390625 Z M 195.402344 103.390625 "/><path style=" stroke:none;fill-rule:nonzero;fill:#af4c0f;fill-opacity:1;" d="M 135.46875 178.816406 C 157.113281 178.816406 161.996094 138.335938 161.996094 138.335938 C 161.996094 138.335938 165.363281 168.449219 255.335938 163.324219 C 255.335938 163.324219 261.957031 122.058594 239.164062 107.40625 C 216.371094 92.753906 157.441406 102.199219 139.53125 121.082031 C 121.625 139.964844 135.46875 178.816406 135.46875 178.816406 Z M 135.46875 178.816406 "/></g></svg>