<svg xmlns="http://www.w3.org/2000/svg" xmlns:xlink="http://www.w3.org/1999/xlink" width="500" zoomAndPan="magnify" viewBox="0 0 375 374.999991" height="500" preserveAspectRatio="xMidYMid meet" version="1.2"><defs><clipPath id="3d8009c9f9"><path d="M 48.523438 11.445312 L 326.5625 11.445312 L 326.5625 363.183594 L 48.523438 363.183594 Z M 48.523438 11.445312 "/></clipPath></defs><g id="3e67064da1"><g clip-rule="nonzero" clip-path="url(#3d8009c9f9)"><path style=" stroke:none;fill-rule:nonzero;fill:#224f08;fill-opacity:1;" d="M 290.105469 52.308594 C 251.617188 12.617188 196.074219 11.445312 189.699219 11.445312 L 185.382812 11.445312 C 179 11.445312 123.464844 12.621094 84.980469 52.308594 C 59.332031 78.75 47.109375 116.089844 48.652344 163.28125 C 50.265625 212.71875 65.945312 256.953125 95.253906 294.765625 C 119.699219 326.296875 147.917969 345.503906 162.566406 354.140625 C 169.570312 358.273438 177.136719 361.226562 185.0625 362.925781 C 185.855469 363.097656 186.695312 363.183594 187.546875 363.183594 C 188.394531 363.183594 189.230469 363.097656 190.027344 362.925781 C 193.6875 362.136719 197.316406 361.078125 200.804688 359.757812 C 204.859375 358.222656 208.800781 356.339844 212.523438 354.140625 C 227.171875 345.503906 255.390625 326.296875 279.835938 294.765625 C 309.136719 256.953125 324.816406 212.71875 326.433594 163.28125 C 327.972656 116.089844 315.75 78.75 290.105469 52.308594 "/></g><path style=" stroke:none;fill-rule:nonzero;fill:#52ed00;fill-opacity:1;" d="M 320.65625 155.429688 C 320.65625 157.953125 320.613281 160.503906 320.527344 163.089844 C 316.910156 273.976562 241.691406 330.085938 209.515625 349.0625 C 206.085938 351.089844 202.453125 352.832031 198.71875 354.242188 C 195.503906 355.453125 192.164062 356.433594 188.785156 357.160156 C 188.007812 357.332031 187.074219 357.324219 186.300781 357.160156 C 178.996094 355.597656 172.023438 352.875 165.570312 349.0625 C 133.398438 330.085938 58.179688 273.976562 54.554688 163.089844 C 53.0625 117.558594 64.726562 81.664062 89.21875 56.414062 C 126.019531 18.464844 179.269531 17.339844 185.382812 17.339844 L 189.699219 17.339844 C 195.824219 17.339844 249.066406 18.464844 285.863281 56.410156 C 308.964844 80.230469 320.65625 113.515625 320.65625 155.429688 "/><path style=" stroke:none;fill-rule:nonzero;fill:#47c100;fill-opacity:1;" d="M 301.835938 183.652344 C 298.722656 278.953125 234.082031 327.175781 206.429688 343.484375 C 203.480469 345.226562 200.359375 346.71875 197.144531 347.933594 C 194.386719 348.972656 191.515625 349.820312 188.609375 350.441406 C 187.941406 350.585938 187.140625 350.582031 186.480469 350.441406 C 180.199219 349.101562 174.203125 346.757812 168.65625 343.484375 C 141.007812 327.175781 76.363281 278.953125 73.25 183.652344 C 71.96875 144.519531 81.992188 113.667969 103.042969 91.96875 C 134.671875 59.359375 180.433594 58.390625 185.691406 58.390625 L 189.398438 58.390625 C 194.660156 58.390625 240.417969 59.359375 272.039062 91.964844 C 291.894531 112.4375 301.945312 141.046875 301.945312 177.070312 C 301.945312 179.234375 301.90625 181.425781 301.835938 183.652344 Z M 285.863281 56.410156 C 249.066406 18.464844 195.824219 17.339844 189.699219 17.339844 L 185.382812 17.339844 C 179.269531 17.339844 126.019531 18.464844 89.21875 56.414062 C 64.726562 81.664062 53.0625 117.558594 54.554688 163.089844 C 58.179688 273.976562 133.398438 330.085938 165.570312 349.0625 C 172.023438 352.875 178.996094 355.597656 186.300781 357.160156 C 187.074219 357.324219 188.007812 357.332031 188.785156 357.160156 C 192.164062 356.433594 195.503906 355.453125 198.71875 354.242188 C 202.453125 352.832031 206.085938 351.089844 209.515625 349.0625 C 241.691406 330.085938 316.910156 273.976562 320.527344 163.089844 C 320.613281 160.503906 320.65625 157.953125 320.65625 155.429688 C 320.65625 113.515625 308.964844 80.230469 285.863281 56.410156 "/><path style=" stroke:none;fill-rule:nonzero;fill:#141413;fill-opacity:1;" d="M 171.898438 265.652344 C 171.898438 265.664062 171.894531 265.679688 171.890625 265.691406 C 171.328125 268.199219 169.320312 270.140625 166.800781 270.640625 C 156.042969 272.78125 144.671875 272.765625 133.28125 270.226562 C 89.488281 260.46875 61.910156 217.097656 71.679688 173.363281 C 71.683594 173.351562 71.6875 173.339844 71.691406 173.324219 C 72.25 170.816406 74.261719 168.875 76.78125 168.375 C 87.535156 166.234375 98.90625 166.25 110.300781 168.792969 C 154.09375 178.546875 181.671875 221.917969 171.898438 265.652344 "/><path style=" stroke:none;fill-rule:nonzero;fill:#141413;fill-opacity:1;" d="M 203.183594 265.652344 C 203.1875 265.664062 203.191406 265.679688 203.195312 265.691406 C 203.753906 268.199219 205.761719 270.140625 208.285156 270.640625 C 219.039062 272.78125 230.410156 272.765625 241.800781 270.226562 C 285.59375 260.46875 313.175781 217.097656 303.402344 173.363281 C 303.398438 173.351562 303.398438 173.339844 303.390625 173.324219 C 302.832031 170.816406 300.824219 168.875 298.304688 168.375 C 287.546875 166.234375 276.175781 166.25 264.785156 168.792969 C 220.992188 178.546875 193.410156 221.917969 203.183594 265.652344 "/><path style=" stroke:none;fill-rule:nonzero;fill:#224f08;fill-opacity:1;" d="M 207.773438 321.226562 C 207.285156 321.226562 206.800781 321.390625 206.414062 321.699219 C 200.71875 326.1875 194.148438 328.558594 187.40625 328.558594 C 180.699219 328.558594 174.1875 326.210938 168.5625 321.761719 C 168.1875 321.464844 167.71875 321.300781 167.242188 321.300781 C 166.613281 321.300781 166.023438 321.578125 165.617188 322.066406 C 165.253906 322.507812 165.085938 323.066406 165.144531 323.632812 C 165.207031 324.203125 165.484375 324.710938 165.929688 325.070312 C 173.3125 330.941406 180.589844 333.917969 187.554688 333.917969 C 194.5 333.917969 201.757812 330.957031 209.125 325.113281 C 209.585938 324.746094 209.875 324.222656 209.9375 323.632812 C 210 323.042969 209.824219 322.46875 209.449219 322.011719 C 209.03125 321.511719 208.425781 321.226562 207.773438 321.226562 "/><path style=" stroke:none;fill-rule:nonzero;fill:#224f08;fill-opacity:1;" d="M 170.210938 198.964844 C 171.796875 201.117188 171.957031 201.316406 172.359375 201.316406 L 172.523438 201.3125 L 172.648438 201.238281 L 172.855469 201.105469 L 172.910156 200.882812 C 173.125 199.984375 169.539062 194.414062 169.503906 194.359375 C 166.902344 190.308594 163.417969 185.851562 159.953125 182.136719 C 156.363281 178.285156 152.097656 174.449219 148.269531 171.625 L 147.617188 171.125 L 143.914062 168.539062 L 142.039062 167.371094 L 140.136719 166.257812 C 139.046875 165.675781 137.457031 164.859375 135.390625 163.824219 C 134.898438 163.613281 134.390625 163.386719 133.863281 163.152344 C 132.292969 162.449219 130.507812 161.65625 128.609375 160.957031 C 125.949219 159.976562 123.261719 159.121094 120.621094 158.421875 C 115.675781 157.097656 110.085938 156.160156 105.296875 155.851562 C 103.785156 155.75 102.3125 155.695312 101.039062 155.695312 C 97.898438 155.695312 97.761719 155.921875 97.746094 156.425781 C 97.726562 157.042969 97.972656 157.078125 101.011719 157.472656 C 102.113281 157.621094 103.484375 157.800781 105.058594 158.039062 C 107.914062 158.460938 113.621094 159.464844 119.75 161.421875 C 122.265625 162.214844 124.816406 163.148438 127.332031 164.1875 C 129.054688 164.902344 130.6875 165.699219 132.128906 166.40625 C 132.691406 166.679688 133.234375 166.949219 133.730469 167.183594 C 135.863281 168.34375 137.242188 169.109375 138.183594 169.648438 L 139.996094 170.777344 L 141.800781 171.832031 L 145.429688 174.195312 L 146.0625 174.652344 C 149.800781 177.210938 154.046875 180.734375 157.71875 184.316406 C 162.246094 188.738281 165.917969 193.300781 167.703125 195.625 C 168.703125 196.917969 169.539062 198.054688 170.210938 198.964844 "/><path style=" stroke:none;fill-rule:nonzero;fill:#224f08;fill-opacity:1;" d="M 277.335938 156.429688 C 277.324219 155.921875 277.1875 155.695312 274.042969 155.695312 C 272.769531 155.695312 271.296875 155.75 269.785156 155.851562 C 264.996094 156.160156 259.40625 157.097656 254.460938 158.421875 C 251.820312 159.121094 249.132812 159.976562 246.476562 160.957031 C 244.578125 161.65625 242.792969 162.449219 241.21875 163.152344 C 240.695312 163.386719 240.1875 163.613281 239.667969 163.839844 C 237.628906 164.859375 236.039062 165.675781 234.929688 166.269531 L 233.027344 167.382812 L 231.148438 168.550781 L 227.445312 171.140625 L 226.824219 171.621094 C 222.984375 174.449219 218.722656 178.285156 215.128906 182.136719 C 211.664062 185.851562 208.183594 190.308594 205.578125 194.359375 C 205.542969 194.414062 201.960938 199.984375 202.171875 200.882812 L 202.238281 201.117188 L 202.429688 201.234375 L 202.574219 201.316406 L 202.722656 201.316406 C 203.128906 201.316406 203.285156 201.117188 204.867188 198.96875 C 205.539062 198.058594 206.375 196.921875 207.378906 195.625 C 209.164062 193.300781 212.835938 188.738281 217.367188 184.316406 C 221.035156 180.734375 225.28125 177.210938 229.03125 174.644531 L 229.632812 174.210938 L 233.257812 171.84375 L 235.101562 170.765625 C 235.179688 170.71875 235.828125 170.316406 236.882812 169.660156 C 237.84375 169.105469 239.222656 168.34375 241.328125 167.195312 C 241.847656 166.949219 242.390625 166.683594 242.949219 166.40625 C 244.390625 165.703125 246.027344 164.902344 247.753906 164.1875 C 250.265625 163.148438 252.816406 162.214844 255.335938 161.421875 C 261.460938 159.464844 267.167969 158.460938 270.027344 158.039062 C 271.597656 157.800781 272.972656 157.621094 274.074219 157.472656 C 277.109375 157.078125 277.359375 157.042969 277.335938 156.429688 "/><path style=" stroke:none;fill-rule:nonzero;fill:#575756;fill-opacity:1;" d="M 76.902344 178.503906 C 76.027344 178.582031 75.703125 185.84375 76.097656 192.175781 C 77.351562 212.355469 86.148438 226.882812 88.441406 230.503906 C 91.234375 234.910156 97.628906 244.785156 109.644531 253.019531 C 124.074219 262.902344 139.175781 265.320312 149.1875 265.710938 C 150.328125 265.753906 150.574219 264.132812 149.46875 263.839844 C 148.160156 263.496094 146.777344 263.105469 145.339844 262.667969 C 138.203125 260.484375 124.046875 256.007812 110.179688 244.441406 C 105.746094 240.742188 90.976562 227.671875 83.34375 206.113281 C 78.230469 191.671875 78.085938 178.402344 76.902344 178.503906 "/><path style=" stroke:none;fill-rule:nonzero;fill:#575756;fill-opacity:1;" d="M 298.273438 178.503906 C 299.148438 178.582031 299.472656 185.84375 299.078125 192.175781 C 297.824219 212.355469 289.027344 226.882812 286.734375 230.503906 C 283.941406 234.910156 277.546875 244.785156 265.527344 253.019531 C 251.097656 262.902344 236 265.320312 225.988281 265.710938 C 224.847656 265.753906 224.601562 264.132812 225.707031 263.839844 C 227.015625 263.496094 228.394531 263.105469 229.835938 262.667969 C 236.972656 260.484375 251.128906 256.007812 264.992188 244.441406 C 269.429688 240.742188 284.199219 227.671875 291.832031 206.113281 C 296.945312 191.671875 297.089844 178.402344 298.273438 178.503906 "/></g></svg>